<svg width="250" height="250" viewBox="0 0 250 250" fill="none" xmlns="http://www.w3.org/2000/svg">
<g clip-path="url(#clip0_43_492)">
<rect width="250" height="250" fill="#D9D9D9"/>
<rect x="26" y="304.034" width="282.357" height="34.5402" transform="rotate(-21.62 26 304.034)" fill="#EC3851"/>
<rect x="-19" y="133.671" width="297.655" height="30" transform="rotate(-21.62 -19 133.671)" fill="#EC3851"/>
<rect x="-32" y="106.544" width="305.454" height="30" transform="rotate(-21.62 -32 106.544)" fill="black"/>
<rect x="-21" y="70.4291" width="267.144" height="30" transform="rotate(-21.62 -21 70.4291)" fill="#EC3851"/>
<rect x="-58" y="54.1123" width="250" height="30" transform="rotate(-21.62 -58 54.1123)" fill="black"/>
<rect x="-69" y="26.1219" width="250" height="30" transform="rotate(-21.6224 -69 26.1219)" fill="#EC3851"/>
<rect x="-16.4751" y="164.806" width="300.738" height="30" transform="rotate(-21.62 -16.4751 164.806)" fill="black"/>
<rect x="-11" y="194.87" width="290.055" height="30" transform="rotate(-21.62 -11 194.87)" fill="#EC3851"/>
<rect x="-14" y="226.579" width="289.265" height="30" transform="rotate(-21.62 -14 226.579)" fill="black"/>
<rect x="-3" y="253.579" width="289.265" height="30" transform="rotate(-21.62 -3 253.579)" fill="#EC3851"/>
<rect x="10" y="280.882" width="287.371" height="30" transform="rotate(-21.62 10 280.882)" fill="black"/>
<rect x="-68.9465" y="162" width="287.371" height="30" transform="rotate(21.62 -68.9465 162)" fill="#91D9F9"/>
<rect x="-5.94653" y="126" width="287.371" height="30" transform="rotate(21.62 -5.94653 126)" fill="#91D9F9"/>
<rect x="-91.9465" y="183" width="287.371" height="30" transform="rotate(21.62 -91.9465 183)" fill="#318CDA"/>
<rect x="-35.9465" y="144" width="287.371" height="30" transform="rotate(21.62 -35.9465 144)" fill="#318CDA"/>
<rect x="22.0535" y="-37" width="287.371" height="30" transform="rotate(21.62 22.0535 -37)" fill="#31D6A5"/>
<rect x="85.0535" y="-73" width="287.371" height="30" transform="rotate(21.62 85.0535 -73)" fill="#31D6A5"/>
<rect x="-0.946533" y="-16" width="287.371" height="30" transform="rotate(21.62 -0.946533 -16)" fill="#F1C40E"/>
<rect x="55.0535" y="-55" width="287.371" height="30" transform="rotate(21.62 55.0535 -55)" fill="#F1C40E"/>
<g filter="url(#filter0_d_43_492)">
<path d="M3.98667 79V28.9947H18.536V79H3.98667ZM38.6093 79H24.828V51.3947L22.268 49.816V45.2507L31.4413 42.7333H38.6947V48.2373C38.8369 48.0382 39.036 47.7822 39.292 47.4693C39.5764 47.128 40.0884 46.6018 40.828 45.8907C41.5676 45.1796 42.3213 44.5538 43.0893 44.0133C43.8858 43.4729 44.8387 42.9893 45.948 42.5627C47.0858 42.1076 48.2093 41.88 49.3187 41.88C52.1631 41.88 54.3391 42.4204 55.8467 43.5013C57.3542 44.5822 58.4209 46.3458 59.0467 48.792C60.0138 47.1138 61.4929 45.5493 63.484 44.0987C65.5036 42.6196 67.7222 41.88 70.14 41.88C72.8138 41.88 74.8902 42.3493 76.3693 43.288C77.8769 44.1982 78.972 45.7627 79.6547 47.9813C80.3373 50.2 80.6787 53.3289 80.6787 57.368V79H66.812V56.1307C66.812 54.8791 66.5133 53.8978 65.916 53.1867C65.3187 52.4756 64.4084 52.12 63.1853 52.12C62.3604 52.12 61.2369 52.8027 59.8147 54.168C59.9 55.5333 59.9427 57.0124 59.9427 58.6053V79H45.8627V56.1307C45.948 53.4569 44.8102 52.12 42.4493 52.12C42.2787 52.12 42.108 52.1342 41.9373 52.1627C41.7951 52.1911 41.6529 52.2196 41.5107 52.248C41.3969 52.2764 41.2547 52.3333 41.084 52.4187C40.9418 52.4756 40.8138 52.5324 40.7 52.5893C40.5862 52.6178 40.4582 52.6889 40.316 52.8027C40.1738 52.888 40.06 52.9591 39.9747 53.016C39.8893 53.0729 39.7613 53.1724 39.5907 53.3147C39.4484 53.4284 39.3347 53.5138 39.2493 53.5707C39.1924 53.6276 39.0787 53.7271 38.908 53.8693C38.7658 53.9831 38.6662 54.0684 38.6093 54.1253V79ZM104.51 75.2027L104.083 75.672C103.799 76.0133 103.358 76.4116 102.761 76.8667C102.192 77.3218 101.523 77.7769 100.755 78.232C100.016 78.6871 99.1056 79.0711 98.0247 79.384C96.9438 79.7253 95.8344 79.896 94.6967 79.896C87.0167 79.896 83.1767 76.0987 83.1767 68.504C83.1767 67.0249 83.4469 65.6738 83.9873 64.4507C84.5278 63.1991 85.2247 62.1467 86.078 61.2933C86.9313 60.44 87.9553 59.6862 89.15 59.032C90.3447 58.3493 91.5393 57.8231 92.734 57.4533C93.9571 57.0551 95.2371 56.728 96.574 56.472C97.9109 56.216 99.1056 56.0453 100.158 55.96C101.21 55.8747 102.22 55.832 103.187 55.832V55.064C103.187 53.3289 102.718 52.1058 101.779 51.3947C100.869 50.6836 99.39 50.328 97.342 50.328C95.5784 50.328 93.7438 50.5413 91.838 50.968C89.9322 51.3662 88.4389 51.8498 87.358 52.4187L84.6273 46.616C86.5616 45.3644 89.0789 44.2693 92.1793 43.3307C95.2798 42.3636 98.4371 41.88 101.651 41.88C104.496 41.88 106.842 42.1644 108.691 42.7333C110.54 43.2738 112.034 44.2124 113.171 45.5493C114.338 46.8578 115.162 48.536 115.646 50.584C116.13 52.6036 116.371 55.1778 116.371 58.3067V75.672L117.566 79H105.875L104.51 75.2027ZM101.139 72.3867C101.509 72.3867 101.85 72.3156 102.163 72.1733C102.505 72.0027 102.761 71.8462 102.931 71.704C103.102 71.5333 103.187 71.448 103.187 71.448V61.208C101.452 61.208 100.073 61.6916 99.0487 62.6587C98.0247 63.5973 97.5127 65.0622 97.5127 67.0533C97.5127 70.6089 98.7216 72.3867 101.139 72.3867ZM138.255 94.0613C136.036 94.0613 133.533 93.5493 130.745 92.5253C127.958 91.5298 126.152 90.5769 125.327 89.6667L128.015 83.8213C128.726 84.3618 129.878 84.8596 131.471 85.3147C133.064 85.7698 134.429 85.9973 135.567 85.9973C136.704 85.9973 137.686 85.8409 138.511 85.528C139.364 85.2436 140.018 84.8738 140.473 84.4187C140.928 83.992 141.298 83.4516 141.583 82.7973C141.867 82.1716 142.038 81.6027 142.095 81.0907C142.18 80.5787 142.237 80.0098 142.265 79.384V75.7573C139.848 78.2604 136.904 79.512 133.433 79.512C128.74 79.512 125.298 77.9049 123.108 74.6907C120.918 71.4764 119.823 67.0107 119.823 61.2933C119.823 58.6196 120.121 56.1591 120.719 53.912C121.316 51.6364 122.184 49.6453 123.321 47.9387C124.488 46.2036 125.995 44.8524 127.844 43.8853C129.693 42.8898 131.784 42.392 134.116 42.392C137.643 42.392 140.701 43.1742 143.289 44.7387L144.015 42.7333H150.543L158.564 43.1173V47.128L156.004 48.92V77.4213C156.004 88.5147 150.088 94.0613 138.255 94.0613ZM139.62 71.7467C140.473 71.7467 141.355 71.5049 142.265 71.0213V48.536C141.583 48.3938 140.957 48.3227 140.388 48.3227C136.605 48.3511 134.699 51.2667 134.671 57.0693V63.6827C134.671 65.5031 134.912 67.0676 135.396 68.376C136.249 70.6231 137.657 71.7467 139.62 71.7467ZM181.11 56.9413C181.11 53.3289 180.925 50.7689 180.556 49.2613C180.186 47.7538 179.503 47 178.508 47C177.654 47 176.957 47.1564 176.417 47.4693C175.877 47.7538 175.478 48.2231 175.222 48.8773C174.966 49.5031 174.796 50.1573 174.71 50.84C174.653 51.4942 174.625 52.3333 174.625 53.3573V56.9413H181.11ZM177.697 79.896C174.511 79.896 171.738 79.4124 169.377 78.4453C167.045 77.4782 165.196 76.1271 163.83 74.392C162.493 72.6569 161.512 70.7084 160.886 68.5467C160.261 66.3564 159.948 63.9244 159.948 61.2507C159.948 54.8791 161.569 50.0578 164.812 46.7867C168.054 43.5156 172.591 41.88 178.422 41.88C184.026 41.88 188.037 43.2027 190.454 45.848C192.872 48.4649 194.081 52.6889 194.081 58.52V63.256H174.582V64.0667C174.582 65.7449 174.753 67.1244 175.094 68.2053C175.464 69.2862 175.99 70.0827 176.673 70.5947C177.356 71.1067 178.053 71.448 178.764 71.6187C179.475 71.7893 180.342 71.8747 181.366 71.8747C182.362 71.8747 183.429 71.7467 184.566 71.4907C185.733 71.2347 186.899 70.8364 188.065 70.296C189.26 69.7556 190.255 69.1156 191.052 68.376L193.569 72.6853C192.517 74.392 190.966 75.8284 188.918 76.9947C186.899 78.1324 184.95 78.9004 183.073 79.2987C181.196 79.6969 179.404 79.896 177.697 79.896Z" fill="white"/>
<path d="M118.749 234.896C116.559 234.896 114.511 234.697 112.605 234.299C110.728 233.929 109.149 233.431 107.869 232.805C106.589 232.18 105.537 231.582 104.712 231.013C103.916 230.444 103.247 229.876 102.707 229.307L103.773 218.939C104.94 220.503 106.504 221.868 108.467 223.035C110.429 224.172 112.548 224.741 114.824 224.741C117.1 224.741 118.735 224.5 119.731 224.016C120.755 223.532 121.267 222.651 121.267 221.371C121.267 220.005 120.684 218.839 119.517 217.872C118.38 216.905 116.403 215.739 113.587 214.373C112.563 213.861 111.695 213.406 110.984 213.008C110.273 212.581 109.32 211.899 108.125 210.96C106.959 209.993 106.006 208.997 105.267 207.973C104.527 206.921 103.873 205.584 103.304 203.963C102.735 202.313 102.451 200.549 102.451 198.672C102.451 188.517 108.182 183.44 119.645 183.44C121.466 183.44 123.172 183.639 124.765 184.037C126.387 184.407 127.652 184.82 128.563 185.275C129.473 185.73 130.298 186.27 131.037 186.896C131.805 187.493 132.289 187.92 132.488 188.176C132.687 188.404 132.829 188.588 132.915 188.731L130.781 196.965C129.672 195.657 128.278 194.69 126.6 194.064C124.95 193.41 123.372 193.083 121.864 193.083C118.223 193.083 116.403 194.22 116.403 196.496C116.403 197.093 116.516 197.634 116.744 198.117C116.972 198.601 117.341 199.042 117.853 199.44C118.365 199.838 118.835 200.18 119.261 200.464C119.716 200.748 120.328 201.104 121.096 201.531C121.892 201.929 122.49 202.256 122.888 202.512C127.041 204.276 130.084 206.366 132.019 208.784C133.981 211.202 134.963 214.146 134.963 217.616C134.963 223.248 133.569 227.543 130.781 230.501C128.022 233.431 124.012 234.896 118.749 234.896ZM157.446 248.677C154.517 248.677 151.757 248.251 149.169 247.397C146.581 246.544 144.689 245.392 143.494 243.941L145.713 239.333C147.363 240.272 149.98 240.741 153.564 240.741C154.701 240.741 155.683 240.613 156.508 240.357C157.333 240.101 158.072 239.646 158.726 238.992C159.381 238.366 159.878 237.47 160.22 236.304C160.561 235.138 160.746 233.701 160.774 231.995V228.325L160.348 229.008C160.063 229.463 159.622 230.018 159.025 230.672C158.456 231.298 157.802 231.938 157.062 232.592C156.323 233.218 155.413 233.758 154.332 234.213C153.279 234.668 152.198 234.896 151.089 234.896C146.851 234.896 143.864 233.716 142.129 231.355C140.394 228.965 139.526 224.955 139.526 219.323V204.176L137.99 202.64V197.733H153.521V222.011C153.521 223.319 153.72 224.286 154.118 224.912C154.545 225.509 155.384 225.808 156.636 225.808C157.005 225.808 157.375 225.751 157.745 225.637C158.115 225.495 158.47 225.31 158.812 225.083C159.181 224.855 159.565 224.571 159.964 224.229V204.176L157.617 202.64V197.733H173.873V229.008C173.873 235.294 172.536 240.144 169.862 243.557C167.189 246.971 163.05 248.677 157.446 248.677ZM193.359 234H179.578V206.395L177.018 204.816V200.251L186.191 197.733H193.445V203.237L193.957 202.597C194.298 202.142 194.796 201.602 195.45 200.976C196.133 200.35 196.886 199.739 197.711 199.141C198.536 198.516 199.518 197.989 200.655 197.563C201.822 197.108 202.959 196.88 204.069 196.88C207.966 196.88 210.71 197.947 212.303 200.08C213.925 202.213 214.735 205.783 214.735 210.789C214.735 210.96 214.735 211.216 214.735 211.557C214.707 211.899 214.693 212.169 214.693 212.368V234H200.613V211.131C200.698 208.457 199.56 207.12 197.199 207.12C197.029 207.12 196.858 207.134 196.687 207.163C196.545 207.191 196.403 207.22 196.261 207.248C196.147 207.276 196.005 207.333 195.834 207.419C195.692 207.476 195.564 207.532 195.45 207.589C195.336 207.618 195.208 207.689 195.066 207.803C194.924 207.888 194.81 207.959 194.725 208.016C194.639 208.073 194.511 208.172 194.341 208.315C194.198 208.428 194.085 208.514 193.999 208.571C193.942 208.628 193.829 208.727 193.658 208.869C193.516 208.983 193.416 209.068 193.359 209.125V234ZM248.622 230.459L248.238 230.928C247.982 231.212 247.527 231.582 246.873 232.037C246.247 232.464 245.479 232.905 244.569 233.36C243.687 233.787 242.492 234.142 240.985 234.427C239.506 234.74 237.913 234.896 236.206 234.896C230.432 234.896 226.009 233.204 222.937 229.819C219.893 226.434 218.371 221.954 218.371 216.379C218.371 213.364 218.841 210.619 219.779 208.144C220.718 205.669 221.998 203.621 223.619 202C225.269 200.35 227.189 199.084 229.379 198.203C231.598 197.292 233.987 196.837 236.547 196.837C241.497 196.837 245.337 198.018 248.067 200.379C248.665 200.976 248.963 201.275 248.963 201.275L248.323 211.301L242.265 211.344L239.833 204.816C239.605 204.759 239.292 204.731 238.894 204.731C236.306 204.731 234.514 205.627 233.518 207.419C232.551 209.182 232.067 212.254 232.067 216.635C232.067 218.54 232.224 220.176 232.537 221.541C232.85 222.878 233.205 223.888 233.603 224.571C234.002 225.225 234.528 225.737 235.182 226.107C235.865 226.476 236.419 226.69 236.846 226.747C237.273 226.804 237.799 226.832 238.425 226.832C239.847 226.832 241.298 226.661 242.777 226.32C244.284 225.979 245.522 225.424 246.489 224.656L248.622 230.459Z" fill="white"/>
</g>
</g>
<defs>
<filter id="filter0_d_43_492" x="-0.0133362" y="28.9947" width="252.977" height="227.683" filterUnits="userSpaceOnUse" color-interpolation-filters="sRGB">
<feFlood flood-opacity="0" result="BackgroundImageFix"/>
<feColorMatrix in="SourceAlpha" type="matrix" values="0 0 0 0 0 0 0 0 0 0 0 0 0 0 0 0 0 0 127 0" result="hardAlpha"/>
<feOffset dy="4"/>
<feGaussianBlur stdDeviation="2"/>
<feComposite in2="hardAlpha" operator="out"/>
<feColorMatrix type="matrix" values="0 0 0 0 0 0 0 0 0 0 0 0 0 0 0 0 0 0 0.25 0"/>
<feBlend mode="normal" in2="BackgroundImageFix" result="effect1_dropShadow_43_492"/>
<feBlend mode="normal" in="SourceGraphic" in2="effect1_dropShadow_43_492" result="shape"/>
</filter>
<clipPath id="clip0_43_492">
<rect width="250" height="250" fill="white"/>
</clipPath>
</defs>
</svg>
